<?xml version="1.0" encoding="UTF-8"?>
<svg width="243px" height="50px" viewBox="0 0 243 50" version="1.1" xmlns="http://www.w3.org/2000/svg" xmlns:xlink="http://www.w3.org/1999/xlink">
    <!-- Generator: Sketch 45.1 (43504) - http://www.bohemiancoding.com/sketch -->
    <title>media-net_loto</title>
    <desc>Created with Sketch.</desc>
    <defs></defs>
    <g id="Page-1" stroke="none" stroke-width="1" fill="none" fill-rule="evenodd">
        <g id="Group">
            <path d="M0,10.842778 L0,14.6318405 L5.86230469,14.6318405 L5.86230469,41.6962936 L15.7504883,41.6962936 L15.7504883,22.5576218 C17.0043945,19.904627 18.9562174,18.6713913 21.605957,18.8579147 C24.2556966,19.0444382 25.6736654,20.2776739 25.8598633,22.5576218 L25.8598633,41.6962936 L35.9755859,41.6962936 L35.9755859,22.5576218 C37.1246745,20.0911504 38.8888346,18.8579147 41.2680664,18.8579147 C43.6472982,18.8579147 45.0869141,20.0911504 45.5869141,22.5576218 L45.5869141,41.6962936 L54.7416992,41.6962936 L54.7416992,22.5576218 C54.1687826,14.2906947 51.1171875,10.1103561 45.5869141,10.0166061 C41.1516927,9.8206426 37.1738281,11.3590541 33.6533203,14.6318405 C31.0601492,11.5550176 28.2290945,10.0166061 25.1601562,10.0166061 C21.0742188,10.030278 17.9376628,11.5686895 15.7504883,14.6318405 L15.7504883,10.842778 L0,10.842778 Z" id="Path-Copy" fill="#000000"></path>
            <path d="M77.6806641,31.3997393 L85.1557617,34.1062823 C82.5066732,40.2556964 77.6184896,43.2237953 70.4912109,43.0105792 C60.3105469,42.5502927 55.1468099,36.766113 55,25.6580401 C55.4798177,15.7836911 60.505778,10.5675453 70.0778809,10.0096026 C77.8472493,9.78564427 83.2058919,13.4791664 86.1538086,21.090169 L86.1538086,29.046712 L63.3994751,29.0665283 C63.2524306,28.2185222 63.2065118,27.2288473 63.2617188,26.0975037 C63.2500953,25.0504148 63.3574969,24.0148212 63.5839233,22.9907227 L77.3852539,23.0008135 C76.6510228,19.3703817 74.2152318,17.6013388 70.0778809,17.6936846 C65.7066243,17.8151039 63.4345703,20.4698891 63.2617188,25.6580401 C62.9309896,31.6219073 65.2030436,35.0563148 70.0778809,35.9612628 C73.0725098,36.3531898 75.6067708,34.832682 77.6806641,31.3997393 Z" id="Path-2-Copy" fill="#000000"></path>
            <path d="M109.705265,39.0456271 C107.093656,41.3254696 103.738074,42.6962936 100.077881,42.6962936 C91.7505972,42.6962936 85,35.6008366 85,26.8481468 C85,18.095457 91.7505972,11 100.077881,11 C103.738074,11 107.093656,12.370824 109.705265,14.6506666 L109.705265,1.42108547e-14 L131.105167,1.42108547e-14 L131.105167,4.00162035 L119.395695,4.00162035 L119.395695,42.007968 L109.705265,42.007968 L109.705265,39.0456271 Z M102.654663,35 C107.172921,35 110.835693,31.1944204 110.835693,26.5 C110.835693,21.8055796 107.172921,18 102.654663,18 C98.1364048,18 94.4736328,21.8055796 94.4736328,26.5 C94.4736328,31.1944204 98.1364048,35 102.654663,35 Z" id="Combined-Shape" fill="#000000"></path>
            <polygon id="Path-4-Copy" fill="#000000" points="121 9 131.975586 9 131.975586 42.2290039 121 42.2290039"></polygon>
            <path d="M161.490198,23.7860637 C157.424836,24.4239111 154.315149,27.9420742 154.315149,32.1865433 C154.315149,36.544675 157.593614,40.1370803 161.818812,40.6320277 L161.818812,41.727559 L152.760706,41.727559 L152.760706,39.6084183 C151.079811,40.7055321 149.682269,41.4119123 148.568079,41.727559 C147.327845,42.2933142 145.382817,42.5338741 142.732996,42.4492387 C140.639653,42.4370316 138.685429,41.9977413 136.870325,41.1313676 C134.949105,40.0959102 133.543831,38.7245723 132.654505,37.0173539 C132.184616,35.7152706 131.967737,34.1941931 132.00387,32.4541215 C132.00387,30.9375684 132.220748,29.725166 132.654505,28.8169144 C133.233118,27.3673702 134.413864,25.9974971 136.196741,24.7072953 C137.979619,23.4170935 140.126998,22.6478877 142.63888,22.3996781 L152.760706,22.1306351 C152.792119,20.4335323 152.792119,19.5947465 152.760706,19.6142777 C149.953447,16.9766475 146.579505,16.9766475 142.63888,19.6142777 L133.074183,19.6142777 C134.496383,13.2856644 139.466435,10.0809118 147.984339,10.0000199 C156.672653,9.99272823 161.174606,11.9892289 161.490198,15.9895219 L161.490198,23.7860637 Z M147.170154,35.376371 C150.155481,34.0132035 152.754114,30.6020707 151.632556,29.0091835 C150.626673,27.3051957 146.306849,28.2876176 142.560779,29.4425332 C139.415097,30.8430809 139.292012,32.6135826 140.0974,34.4225136 C140.902788,36.2314446 144.024472,36.7769188 147.170154,35.376371 Z" id="Combined-Shape" fill="#000000"></path>
            <polygon id="Path-6-Copy" fill="#000000" points="158 46 174.362061 46 174.362061 49.2316895 158 49.2316895"></polygon>
            <circle id="Oval-Copy" fill="#EC6529" cx="165.845093" cy="31.8450928" r="6.84509277"></circle>
            <path d="M202.254248,26.1613945 C202.256418,26.2709423 202.259225,26.3859315 202.262731,26.5067729 C202.244732,26.5057826 200.510453,26.5057825 197.059895,26.5067728 L197.059895,39.1297294 L193.19715,39.1297294 L193.19715,20.7155498 C193.19715,18.9164543 192.77384,17.6465236 191.927207,16.9057196 C191.080574,16.1649155 189.916471,15.7945191 188.434863,15.7945191 C187.235466,15.7945191 186.115457,16.0061742 185.074804,16.4294908 C184.034151,16.8528074 183.134616,17.4084021 182.376174,18.0962915 C181.617732,18.784181 181.018043,19.5867066 180.577088,20.5038926 C180.136133,21.4210785 179.915659,22.3558886 179.915659,23.308351 L179.915659,39.1297294 L176,39.1297294 L176,12.8313178 L179.915659,12.8313178 L179.915659,16.7998909 C181.256161,15.2124537 182.720109,14.0748075 184.307547,13.386918 C185.894984,12.6990285 187.517673,12.355089 189.175663,12.355089 C191.680286,12.355089 193.620458,13.060606 194.996237,14.4716613 C196.372016,15.8827166 197.059895,17.8052507 197.059895,20.239321 L197.059895,23.6781304 C200.526791,23.6746909 202.29338,23.674062 202.359662,23.6762438 C202.490815,22.60112 202.734969,21.561312 203.092126,20.5568069 C203.656548,18.9693697 204.459074,17.5671545 205.499727,16.3501193 C206.540381,15.1330841 207.801492,14.1629982 209.2831,13.4398323 C210.764709,12.7166665 212.422674,12.355089 214.257046,12.355089 C216.056141,12.355089 217.670011,12.6813906 219.098705,13.3340037 C220.527398,13.9866168 221.744415,14.8773321 222.749792,16.0061763 C223.755169,17.1350205 224.531238,18.4843219 225.078022,20.054121 C225.624806,21.62392 225.898194,23.3259799 225.898194,25.1603518 L225.898194,26.6948668 L206.319899,26.6948668 C206.355176,27.9295402 206.57565,29.1201002 206.981328,30.2665826 C207.387006,31.4130651 207.95142,32.4360648 208.674586,33.3356126 C209.397752,34.2351603 210.235553,34.9494963 211.188016,35.4786421 C212.140478,36.0077878 213.181116,36.2723567 214.30996,36.2723567 C218.084533,36.2723567 220.589118,34.5085641 221.823792,30.9809258 L225.36905,30.9809258 C225.086839,32.3567047 224.592977,33.5825406 223.88745,34.6584703 C223.181922,35.7344 222.335302,36.6427532 221.347563,37.3835572 C220.359824,38.1243612 219.257454,38.6887749 218.040419,39.0768151 C216.823383,39.4648553 215.57991,39.6588725 214.30996,39.6588725 C212.475588,39.6588725 210.817623,39.2796571 209.336015,38.5212149 C207.854407,37.7627726 206.584476,36.7397729 205.526185,35.4521849 C204.467893,34.164597 203.656548,32.6741922 203.092126,30.9809258 C202.585088,29.4598108 202.305797,27.8533133 202.254248,26.1613945 Z M221.876706,23.6787511 C221.84143,22.5851833 221.638594,21.5533646 221.268192,20.5832641 C220.897789,19.6131635 220.377471,18.775362 219.707219,18.0698344 C219.036968,17.3643067 218.216805,16.808712 217.246704,16.4030336 C216.276603,15.9973552 215.191871,15.7945191 213.992474,15.7945191 C212.898906,15.7945191 211.893544,16.0149932 210.976358,16.4559479 C210.059172,16.8969027 209.256647,17.4789543 208.568757,18.2021201 C207.880868,18.925286 207.342911,19.7630875 206.954871,20.7155498 C206.566831,21.6680122 206.355176,22.655736 206.319899,23.6787511 L221.876706,23.6787511 Z M236.486427,5 L236.486427,12.8313178 L242.560829,12.8313178 L242.560829,16.1649192 L236.486427,16.1649192 L236.486427,33.2033268 C236.486427,34.3674474 236.759815,35.1699731 237.306599,35.6109279 C237.853383,36.0518826 238.550081,36.2723567 239.396714,36.2723567 C241.257568,36.4329519 241.890578,35.4874618 242.560829,35.3463563 L242.560829,38.5212149 C240.69873,39.608489 239.416504,39.7266531 237.862199,39.6588725 C237.156672,39.6588725 236.48643,39.5706829 235.851456,39.394301 C235.216481,39.2179191 234.652067,38.9268933 234.158198,38.5212149 C233.664328,38.1155365 233.276294,37.5863987 232.994083,36.9337856 C232.711872,36.2811725 232.570768,35.4962848 232.570768,34.5790988 L232.570768,16.1649192 L226.496367,16.1649192 L226.496367,12.8313178 L232.570768,12.8313178 L232.570768,5 L236.486427,5 Z" id="net-copy-2" fill="#000000"></path>
        </g>
    </g>
</svg>