<?xml version="1.0" encoding="UTF-8"?>
<svg width="137px" height="29px" viewBox="0 0 137 29" version="1.1" xmlns="http://www.w3.org/2000/svg" xmlns:xlink="http://www.w3.org/1999/xlink">
    <!-- Generator: Sketch 51.2 (57519) - http://www.bohemiancoding.com/sketch -->
    <title>Group 2 Copy</title>
    <desc>Created with Sketch.</desc>
    <defs></defs>
    <g id="Page-1" stroke="none" stroke-width="1" fill="none" fill-rule="evenodd">
        <g id="Home-Copy" transform="translate(-541.000000, -47.000000)">
            <g id="Group-2-Copy" transform="translate(541.000000, 47.000000)">
                <polygon id="Fill-11" fill="#FFFFFF" points="88.9298246 28.8679822 98.5397735 28.8854606 98.5438596 26.4958172 88.9339107 26.4783388"></polygon>
                <g id="Group">
                    <polygon id="Fill-1" fill="#FFFFFF" points="68.7192 23.2460283 74.5748244 23.256061 74.6089136 4.98153811 68.752646 4.97087839"></polygon>
                    <path d="M61.1968709,18.1696814 C60.8218897,18.592935 60.3523592,18.9246404 59.8358756,19.1654246 C59.2955939,19.3936681 58.7205798,19.5197036 58.0986127,19.5197036 C57.5705516,19.5197036 57.0656455,19.4281554 56.5967582,19.245059 C56.1272277,19.0625897 55.7162277,18.7992319 55.3644014,18.4675265 C54.9534014,18.0668464 54.62473,17.5520446 54.4015423,16.9456946 C54.1905751,16.3274309 54.0844484,15.6295327 54.0844484,14.8400864 C54.0844484,13.8788304 54.2491056,13.04361 54.577777,12.3457118 C54.9064484,11.6484407 55.3644014,11.1104384 55.9625704,10.7442456 C56.5613826,10.3667661 57.2656784,10.1836697 58.0870352,10.172383 C58.9437676,10.1836697 59.6950164,10.3893396 60.3523592,10.7781059 C60.9974812,11.1674992 61.5139648,11.7048745 61.8780117,12.3914859 C62.2414155,13.0780973 62.4292277,13.8788304 62.4292277,14.7717388 C62.4292277,15.4583501 62.3237441,16.0872736 62.1121338,16.6597633 C61.8895892,17.2429127 61.5962934,17.735141 61.1968709,18.1696814 Z M36.7851432,12.5520088 C37.0321291,11.6484407 37.4547066,10.9844028 38.0650962,10.5266619 C38.6748427,10.0921215 39.4846221,9.87453784 40.4822136,9.87453784 C41.4450728,9.87453784 42.231054,10.1034083 42.8298662,10.5611492 C43.4286784,11.0188902 43.8274577,11.682301 44.01527,12.5745823 L36.7851432,12.5520088 Z M68.0629507,0.389894946 L65.5390634,0.377981141 L62.5353545,0.377981141 L62.5353545,8.00971383 C61.9243216,7.54068614 61.33773,7.15129283 60.7511385,6.85407474 C60.739561,6.84278798 60.7279836,6.84278798 60.7157629,6.83087417 C60.1291714,6.53365609 59.5072042,6.31607239 58.861439,6.17875011 C58.2163169,6.04142783 57.5235986,5.97308021 56.7723498,5.97308021 C55.6101009,5.97308021 54.5539789,6.15617658 53.5917629,6.51045552 C52.6295469,6.8653615 51.784392,7.40336386 51.0569413,8.10126202 C50.2703169,8.89070836 49.6721479,9.84005051 49.2495704,10.9731161 C49.1087113,11.3505956 48.991007,11.7625624 48.8971009,12.185816 C48.5690728,10.8357938 48.0287911,9.6801547 47.2659648,8.73018551 C46.5031385,7.78084336 45.5409225,7.04845788 44.4024718,6.54494285 C43.2640211,6.04142783 41.9493357,5.78998384 40.4822136,5.77869708 C39.1443732,5.77869708 37.9120164,5.99565374 36.821162,6.41890734 C35.7290211,6.84278798 34.7783826,7.44913795 33.9924014,8.2385843 C33.205777,9.0393174 32.5953873,9.98928659 32.1728099,11.0991516 C31.7508756,12.1977298 31.5276878,13.4323762 31.5276878,14.8062261 C31.5276878,16.1675351 31.7386549,17.4253821 32.1728099,18.5584476 C32.607608,19.6915132 33.2411526,20.6753427 34.07473,21.5105631 C34.8722887,22.3000094 35.8113498,22.8837859 36.9028474,23.2731792 C37.9827676,23.6619455 39.2151244,23.8557016 40.5876972,23.8557016 C41.9847113,23.8557016 43.2408662,23.6619455 44.3555188,23.2731792 C45.4701714,22.8837859 46.4323873,22.3000094 47.2312324,21.5331366 C47.4891526,21.2816926 47.7239178,21.0302487 47.9233075,20.7781776 C48.1226972,20.5267336 48.3105094,20.2288885 48.4983216,19.9084698 C48.6861338,19.5767644 48.8855235,19.1760844 49.0971338,18.7070567 L44.2030822,17.3463747 C44.132331,17.5859049 44.0500023,17.7809151 43.9798944,17.9408109 C43.9097864,18.1013337 43.8158803,18.2499428 43.7219742,18.3753513 C43.6164906,18.5013868 43.4987864,18.6267952 43.3579272,18.7534578 C42.9938803,19.0851632 42.5713028,19.3366072 42.0901948,19.5084168 C41.6090869,19.6795994 41.0810258,19.7598608 40.5175892,19.7598608 C39.4029366,19.7598608 38.5224061,19.4626427 37.877284,18.890153 C37.2315188,18.3070036 36.8443169,17.4717832 36.7034577,16.3506314 L48.7092887,16.373205 C48.8507911,17.5746181 49.1556643,18.638709 49.6136174,19.5767644 C50.2587394,20.9042131 51.1978005,21.9225299 52.4185798,22.6317149 C53.638716,23.3528136 55.105838,23.7077196 56.8193028,23.7190063 C57.4058944,23.7190063 57.9461761,23.6958058 58.4388615,23.6274581 C58.9321901,23.5591105 59.4010775,23.4443618 59.8358756,23.2957527 C60.281608,23.1352299 60.7279836,22.9408468 61.1499178,22.6894028 C61.3145751,22.5978546 61.4785892,22.4943926 61.6432465,22.3802709 C61.9243216,22.1971745 62.2182606,21.9795908 62.5115563,21.7507203 L62.5115563,23.2380648 L67.7696549,23.2499786 L67.7696549,9.9315987 L67.7812324,2.54065028 L67.8629178,2.54065028 L71.8069742,2.55193704 L74.6112934,2.55193704 L74.6112934,0.401181709 L68.0629507,0.389894946 Z" id="Fill-2" fill="#FFFFFF"></path>
                    <path d="M31.5798507,12.2428142 L31.5798507,14.8513104 L31.5682732,14.8513104 L31.5566958,19.2681969 L31.5566958,23.1809413 L26.180893,23.1696545 L26.180893,13.3639659 C26.180893,12.6773545 26.110785,12.1280654 25.9583484,11.7054389 C25.8059117,11.2815582 25.5711465,10.9730534 25.2540526,10.789957 C24.9253812,10.5955739 24.4912263,10.5040257 23.9631653,10.5040257 C23.4820573,10.5040257 23.0241042,10.6181474 22.5899493,10.8470179 C22.1557944,11.0871751 21.757015,11.4195075 21.4045455,11.8540479 C21.4045455,11.8653347 21.4045455,11.8653347 21.3929681,11.8653347 C20.7825784,12.6322075 20.5246582,13.6154099 20.5246582,14.5772929 L20.5246582,14.623067 L20.5124376,19.0393264 L20.5124376,23.1583678 L15.1019023,23.147081 L15.1019023,19.8400595 C15.114123,19.5767017 15.114123,19.3026842 15.114123,19.0048391 L15.1257005,13.3413924 C15.1257005,12.9632859 15.114123,12.6434942 15.0787474,12.3801364 C15.0555925,12.1174057 15.0079962,11.8885352 14.9378883,11.7054389 C14.8677803,11.5223425 14.7738742,11.3505329 14.65617,11.2019238 C14.4921559,10.9843401 14.2805455,10.8125305 14.0110479,10.687122 C13.740907,10.5723733 13.4476113,10.5153124 13.1073624,10.5153124 C12.343893,10.5153124 11.6518178,10.7667564 11.0298507,11.2702715 C10.8767709,11.4075937 10.7243343,11.5455431 10.5834751,11.6935251 C9.92613239,12.4146238 9.59810423,13.3639659 9.51577559,14.3252219 C9.50419812,14.4625442 9.50419812,14.6111532 9.50419812,14.7603893 L9.49262066,18.9935523 C9.49262066,19.566042 9.49262066,20.0802168 9.50419812,20.5379577 L9.50419812,23.147081 L4.15219343,23.1351672 L4.15219343,18.9822656 L4.16377089,10.5265992 C4.16377089,9.87447514 4.16377089,9.30261249 4.15219343,8.821671 L4.15219343,8.75332338 L4.14061596,8.51316615 L0.431968075,8.51316615 L0.431968075,6.37369758 L3.94122629,6.37369758 L9.51577559,6.38498434 L9.51577559,8.16954693 C10.2200714,7.41458792 11.0060526,6.85401204 11.8750056,6.49910606 C12.754893,6.13291331 13.7524845,5.94981694 14.8562028,5.94981694 C15.5830103,5.94981694 16.2525737,6.04136513 16.8629634,6.20188797 C17.4611324,6.37369758 17.9891934,6.61385481 18.4587239,6.94556022 C18.622738,7.05968193 18.7642404,7.18571745 18.8928789,7.31175297 C19.0221606,7.43716144 19.1514423,7.58639753 19.2569258,7.74629333 C19.3739869,7.90681618 19.4801136,8.08928551 19.6087521,8.31878301 C20.1837662,7.7694939 20.7710009,7.31175297 21.36917,6.95684699 C21.9679822,6.61385481 22.6137474,6.35049701 23.2826676,6.19060121 C23.9631653,6.0187916 24.7028366,5.93853018 25.5119728,5.94981694 C27.5193765,5.94981694 29.0450291,6.47653253 30.0541981,7.54062343 C31.0755878,8.60471434 31.5798507,10.1723203 31.5798507,12.2428142" id="Fill-4" fill="#FFFFFF"></path>
                    <path d="M86.3887911,16.7165734 C86.3887911,17.1285402 86.294885,17.5173065 86.1302277,17.8722125 C85.9546362,18.2264914 85.6960728,18.5475371 85.3796221,18.8215546 C85.1094812,19.0391383 84.8161854,19.2222347 84.463716,19.3708437 C84.1234671,19.5313666 83.7478427,19.6454883 83.3606408,19.7370365 C82.973439,19.8172979 82.5862371,19.863072 82.1990352,19.863072 C81.4593638,19.8517852 80.8959272,19.7138359 80.4971479,19.4511051 C80.0983685,19.1764606 79.8983357,18.7989811 79.8867582,18.2960931 C79.8983357,17.895413 80.0391948,17.5292203 80.3324906,17.2081746 C80.6142089,16.8877559 81.0136315,16.6482257 81.530115,16.4764161 C81.9050962,16.3622944 82.3045188,16.2701192 82.7386737,16.2017716 C83.1850493,16.1215102 83.6893122,16.0644493 84.2759038,16.029962 C84.8631385,15.9841879 85.5674343,15.9616144 86.3887911,15.9384138 L86.3887911,16.7165734 Z M87.3748052,18.5588239 C87.3748052,16.1447107 89.252284,14.1538512 91.6584671,13.9024072 L91.6584671,11.9686085 C91.6584671,11.1446749 91.5761385,10.4235761 91.3883263,9.8059394 C91.2127347,9.17638886 90.9310164,8.63901355 90.5431714,8.18127262 C90.1675469,7.72353169 89.6748615,7.33476542 89.0760493,7.01434677 C88.7126455,6.81933659 88.2546925,6.65944079 87.7028333,6.51083175 C87.1631948,6.36159566 86.5643826,6.24747395 85.9070399,6.16721253 C85.2503404,6.08757815 84.5814202,6.05309082 83.8771244,6.04180406 C82.5161291,6.04180406 81.3069272,6.16721253 80.2623826,6.43057032 C79.2062606,6.69392812 78.3141526,7.08269439 77.5513263,7.59749618 C77.1641244,7.87214073 76.8232324,8.1586991 76.5299366,8.46720394 C76.2482183,8.77570879 76.0018756,9.13061477 75.7786878,9.52000808 C75.5677207,9.92006112 75.368331,10.3897159 75.1805188,10.9270912 L80.5441009,11.7855122 C80.7550681,11.1101875 81.119115,10.629246 81.6240211,10.3207412 C82.1405047,10.0116093 82.8325798,9.86300026 83.7362653,9.86300026 C84.6515282,9.86300026 85.3320258,10.0235231 85.7552465,10.332028 C86.1887582,10.6524466 86.4003685,11.1333881 86.4003685,11.7967989 L86.4003685,12.4257224 C85.8954624,12.4376362 85.44973,12.448923 85.0741056,12.4602098 C84.6984812,12.4714965 84.3698099,12.4834103 84.0649366,12.4946971 C83.7716408,12.5059839 83.4899225,12.5285574 83.2313592,12.5404712 C82.9618615,12.5630447 82.7032981,12.5862453 82.4338005,12.6088188 C81.1660681,12.7116537 80.062993,12.9179507 79.0885563,13.203882 C78.1379178,13.5017271 77.2927629,13.8904934 76.5775329,14.3820946 C75.9079695,14.8404626 75.3914859,15.4004114 75.0396596,16.0870228 C74.6994108,16.7510607 74.5231761,17.5292203 74.5231761,18.398928 C74.5231761,19.1538871 74.6524577,19.8517852 74.9103779,20.4919955 C75.1689413,21.1328328 75.5561432,21.6708351 76.0604061,22.1285761 C76.6238427,22.6433779 77.3049836,23.0208574 78.1147629,23.2729284 C78.9123216,23.5243724 79.8513826,23.6504079 80.9197254,23.6504079 C81.6825516,23.6504079 82.3862042,23.6040068 83.0088146,23.4905121 C83.6423592,23.3870501 84.2295939,23.2039537 84.7808099,22.9637965 C85.3204484,22.7236393 85.86073,22.4025936 86.3765704,22.0138273 L86.3765704,23.2729284 L91.8340587,23.2842152 L91.8340587,23.237814 C89.3346127,23.0666315 87.3625845,21.0412846 87.3748052,18.5588239 Z" id="Fill-6" fill="#FFFFFF"></path>
                    <path d="M130.598948,9.23382595 L132.629507,9.23382595 L132.629507,5.35494184 L130.598948,5.35494184 L130.598948,9.23382595 Z M136.373531,21.1444958 C136.080235,21.3156783 135.821671,21.4536277 135.586906,21.5564626 C135.364362,21.6592976 135.141174,21.7282722 134.917986,21.7621325 C134.719239,21.8085336 134.496052,21.8198204 134.261286,21.8198204 C133.978925,21.8198204 133.732582,21.784706 133.510038,21.7050716 C133.28685,21.6254373 133.099038,21.5219753 132.958178,21.3733662 C132.841117,21.2592445 132.747211,21.0987217 132.688038,20.881138 C132.641085,20.6635543 132.605709,20.3663362 132.605709,19.9888567 L132.61793,16.3275563 L132.63015,10.9387542 L130.598948,10.9387542 L130.575793,20.2522145 C130.575793,20.8585644 130.634324,21.3620795 130.752028,21.7621325 C130.869089,22.1747264 131.056901,22.494518 131.327042,22.7578758 C131.59654,23.0206065 131.949009,23.2156167 132.394742,23.3642258 C132.828897,23.501548 133.346023,23.5698957 133.944192,23.5698957 C134.296019,23.5698957 134.648488,23.5592359 134.964939,23.5128348 C135.29361,23.4789745 135.610704,23.4099999 135.939376,23.3297384 C136.255826,23.2381902 136.596718,23.1240685 136.960122,22.9754595 L136.373531,21.1444958 Z" id="Fill-8" fill="#FFFFFF"></path>
                    <path d="M115.870419,14.0620522 C115.92895,13.821895 115.988123,13.6049383 116.069809,13.4099281 C116.151494,13.2042582 116.246044,12.9979613 116.374682,12.7922914 C116.785682,12.0486191 117.313743,11.49933 117.959508,11.1099367 C118.616851,10.7211704 119.355879,10.5267873 120.165659,10.5267873 C120.811424,10.5267873 121.398015,10.6183355 121.913856,10.8240054 C122.44256,11.0183885 122.912091,11.3162337 123.323091,11.7049999 C123.604166,11.9683577 123.839574,12.2662028 124.027386,12.5747077 C124.226133,12.8838396 124.379213,13.2268318 124.484696,13.615598 C124.601757,13.9937046 124.672508,14.4401587 124.731039,14.9198462 L116.457011,14.8972726 L115.705762,14.8972726 C115.752715,14.576854 115.811246,14.2909227 115.870419,14.0620522 M123.181588,21.2128434 C122.44256,21.7282722 121.527297,21.9797162 120.447377,21.9797162 C119.637598,21.9797162 118.921724,21.8311072 118.275959,21.5219753 C117.642415,21.2128434 117.114354,20.778303 116.680199,20.1945266 C116.445433,19.8860217 116.246044,19.5656031 116.104541,19.2219839 C115.964325,18.8789917 115.846621,18.4902254 115.764936,18.055058 C115.694185,17.6318044 115.647231,17.1289164 115.623433,16.54514 L116.457011,16.54514 L126.867081,16.5677135 C126.843926,16.3162695 126.831706,16.0641985 126.79633,15.790181 C126.773175,15.5149094 126.75002,15.2753792 126.726222,15.0458817 C126.703067,14.8170112 126.690846,14.6571154 126.679269,14.5542805 C126.503034,13.3873546 126.116476,12.3796975 125.540818,11.5338174 C124.966447,10.6866831 124.215199,10.0345591 123.31087,9.57681812 C122.419405,9.11970423 121.386438,8.89020673 120.224832,8.87891996 C119.227241,8.87891996 118.311335,9.05072957 117.501555,9.40563555 C116.691776,9.74862773 115.988123,10.240856 115.412466,10.8929801 C114.825875,11.5338174 114.380142,12.3113499 114.062405,13.214918 C113.886814,13.7416335 113.757532,14.3028365 113.675846,14.8972726 L111.551382,14.8972726 L111.551382,13.9021564 C111.551382,13.2613191 111.492851,12.7007432 111.375147,12.208515 C111.246508,11.7049999 111.070274,11.2704596 110.81171,10.9042668 C110.377555,10.2634295 109.802541,9.7718283 109.075091,9.43949584 C108.359217,9.10779043 107.514062,8.93660786 106.539626,8.93660786 C105.342645,8.92469406 104.2981,9.18805185 103.406635,9.70285364 C102.56148,10.2063687 101.833386,10.9500409 101.22364,11.9451572 L101.22364,9.18805185 L99.2046587,9.18805185 L99.2046587,11.0760764 C99.2162362,11.3964951 99.2162362,11.7394873 99.2162362,12.1282535 L99.2046587,20.2973615 L99.2046587,23.249477 L101.199842,23.249477 L101.199842,22.8607107 L101.211419,15.4810491 L101.211419,15.2634654 C101.28217,14.9198462 101.376077,14.6113413 101.48156,14.3366968 C101.575466,14.0507654 101.716325,13.7761209 101.868762,13.5127631 C102.021199,13.2500323 102.220588,12.9753878 102.443776,12.6894564 C103.007213,11.9802715 103.594447,11.4648427 104.227992,11.1218505 C104.849959,10.7901451 105.530457,10.6296223 106.270128,10.6296223 C107.32625,10.640909 108.13603,10.9387542 108.687889,11.5563909 C109.250682,12.1627409 109.520823,13.0556492 109.520823,14.2332348 L109.520823,23.2613908 L111.528227,23.2726776 L111.539804,16.5570538 L111.551382,16.5570538 L111.551382,16.5332262 L113.593518,16.54514 L113.593518,16.5570538 C113.616673,17.5747436 113.769109,18.4902254 114.062405,19.3141591 C114.380142,20.2177271 114.837452,20.9958867 115.424687,21.636724 L115.564903,21.7740463 C116.128339,22.3571957 116.79726,22.8030228 117.583884,23.1240685 C118.416818,23.4670607 119.367457,23.6501571 120.412645,23.6501571 C121.386438,23.6501571 122.28948,23.501548 123.099903,23.1930432 C123.897462,22.8832843 124.625555,22.4368301 125.247523,21.8311072 C125.447555,21.636724 125.635368,21.4423409 125.799382,21.2473307 C125.951818,21.0529476 126.104255,20.8359909 126.256692,20.5839199 C126.397551,20.3324759 126.562208,20.0346308 126.726222,19.668438 L124.860321,18.9360525 C124.484696,19.9430826 123.921903,20.6980416 123.181588,21.2128434" id="Fill-10" fill="#FFFFFF"></path>
                    <path d="M93.7908432,22.6386123 C95.811754,22.6423746 97.4628291,21.035265 97.4666883,19.0607086 C97.4705474,17.0861521 95.825261,15.470891 93.8043502,15.4671287 C91.7821531,15.4646206 90.1323643,17.0729843 90.1285052,19.0475407 C90.124646,21.0227241 91.7692892,22.6348501 93.7908432,22.6386123" id="Fill-12" fill="#ED7031"></path>
                    <path d="M136.643543,9.23370054 L136.631322,10.9041414 L136.631322,10.9386287 L127.124937,10.9386287 L127.124937,9.23370054 L132.630022,9.23370054 L132.630022,9.24561434 L133.908688,9.24561434 C134.319688,9.24561434 134.659937,9.24561434 134.953233,9.23370054 L136.643543,9.23370054 Z" id="Fill-16" fill="#FFFFFF"></path>
                </g>
            </g>
        </g>
    </g>
</svg>