<svg width="32" height="32" xmlns="http://www.w3.org/2000/svg">

 <g>
  <title>background</title>
  <rect fill="none" id="canvas_background" height="402" width="582" y="-1" x="-1"/>
 </g>
 <g>
  <title>Layer 1</title>
  <path id="svg_1" fill-rule="evenodd" fill="#f84234" d="m31.391,13.883l-5,-8c-0.73,-1.169 -2.012,-1.88 -3.391,-1.88l-19,0c-2.209,0 -4,1.791 -4,4l0,16c0,2.209 1.791,4 4,4l19,0c1.379,0 2.66,-0.711 3.391,-1.881l5,-8c0.812,-1.295 0.812,-2.942 0,-4.239zm-1.696,3.179l-5,8.002c-0.367,0.588 -1.002,0.939 -1.695,0.939l-19,0c-1.103,0 -2,-0.898 -2,-2l0,-16c0,-1.103 0.897,-2 2,-2l19,0c0.693,0 1.328,0.352 1.695,0.939l5,8c0.403,0.645 0.403,1.477 0,2.12z" clip-rule="evenodd"/>
  <path id="svg_2" fill-rule="evenodd" fill="#333333" d="m23,13.003c-1.658,0 -3,1.343 -3,3c0,1.657 1.342,3 3,3c1.656,0 3,-1.344 3,-3c0,-1.657 -1.344,-3 -3,-3zm0,5.001c-1.105,0 -2,-0.896 -2,-2c0,-1.104 0.895,-2 2,-2c1.104,0 2,0.896 2,2c0,1.103 -0.896,2 -2,2z" clip-rule="evenodd"/>
  <ellipse ry="3.047858" rx="3.198992" id="svg_6" cy="15.945686" cx="22.95214" stroke-opacity="null" stroke-width="null" stroke="null" fill="#2a7652"/>
 </g>
</svg>